<?xml version="1.0" standalone="no"?>
<!DOCTYPE svg PUBLIC "-//W3C//DTD SVG 20010904//EN"
 "http://www.w3.org/TR/2001/REC-SVG-20010904/DTD/svg10.dtd">
<svg version="1.0" xmlns="http://www.w3.org/2000/svg"
 width="512.000000pt" height="512.000000pt" viewBox="0 0 512.000000 512.000000"
 preserveAspectRatio="xMidYMid meet">
<metadata>
Created by potrace 1.16, written by Peter Selinger 2001-2019
</metadata>
<g transform="translate(0.000000,512.000000) scale(0.100000,-0.100000)"
fill="#FAA572" stroke="none">
<path d="M3445 4741 c-16 -10 -287 -277 -602 -592 -499 -502 -572 -579 -578
-611 -15 -81 -20 -75 584 -681 311 -313 578 -575 593 -583 15 -8 49 -14 76
-14 38 0 57 6 88 29 21 16 287 278 591 582 599 602 584 584 563 673 -8 35 -80
111 -582 614 -328 328 -587 580 -605 588 -45 19 -92 17 -128 -5z"/>
<path d="M454 4429 c-51 -15 -91 -69 -99 -131 -3 -29 -5 -404 -3 -833 3 -759
4 -781 23 -814 11 -18 36 -42 55 -53 34 -17 70 -18 862 -16 818 3 827 3 855
24 15 11 36 36 45 55 17 32 18 93 18 849 0 776 -1 817 -19 850 -10 19 -34 44
-52 55 -33 20 -54 20 -844 22 -472 1 -823 -2 -841 -8z"/>
<path d="M460 2210 c-54 -13 -97 -67 -105 -131 -3 -30 -5 -405 -3 -834 3 -759
4 -781 23 -814 11 -18 36 -42 55 -53 34 -17 70 -18 862 -16 818 3 827 3 855
24 15 11 36 36 45 55 17 32 18 93 18 849 0 776 -1 817 -19 850 -10 19 -34 44
-52 55 -33 20 -53 20 -839 22 -443 0 -821 -3 -840 -7z"/>
<path d="M2692 2210 c-18 -4 -42 -16 -53 -26 -51 -46 -49 -16 -49 -899 0 -923
-5 -862 70 -904 37 -21 44 -21 856 -21 800 0 820 1 852 20 18 11 41 34 52 52
19 32 20 52 20 858 0 801 -1 826 -20 857 -10 18 -34 40 -52 50 -31 17 -84 18
-838 20 -443 0 -820 -2 -838 -7z"/>
</g>
</svg>
