<?xml version="1.0" standalone="no"?>
<!DOCTYPE svg PUBLIC "-//W3C//DTD SVG 20010904//EN"
 "http://www.w3.org/TR/2001/REC-SVG-20010904/DTD/svg10.dtd">
<svg version="1.0" xmlns="http://www.w3.org/2000/svg"
 width="512.000000pt" height="512.000000pt" viewBox="0 0 512.000000 512.000000"
 preserveAspectRatio="xMidYMid meet">
<metadata>
Created by potrace 1.16, written by Peter Selinger 2001-2019
</metadata>
<g transform="translate(0.000000,512.000000) scale(0.100000,-0.100000)"
fill="#000000" stroke="none" class="dark-theme-svg">
<path d="M1502 4926 c-235 -123 -440 -273 -627 -460 -135 -135 -213 -231 -321
-392 -544 -814 -567 -1883 -59 -2718 205 -338 514 -650 841 -849 236 -144 461
-238 717 -301 196 -49 322 -66 533 -73 424 -14 820 71 1199 256 262 128 474
280 681 486 188 188 345 403 463 633 68 134 74 170 36 207 -38 39 -75 33 -181
-31 -264 -157 -565 -260 -876 -300 -179 -22 -492 -16 -660 15 -490 89 -913
317 -1256 676 -311 325 -512 723 -593 1173 -30 169 -37 481 -15 660 40 311
143 612 300 876 64 106 70 143 31 181 -38 39 -75 32 -213 -39z"/>
<path d="M2821 4861 c-11 -11 -22 -40 -25 -68 -12 -98 -28 -167 -50 -217 -52
-116 -166 -229 -282 -282 -50 -22 -119 -38 -217 -50 -62 -7 -87 -31 -87 -84 0
-53 25 -77 87 -84 98 -12 167 -28 217 -50 116 -53 230 -166 282 -282 22 -50
38 -119 50 -217 7 -62 31 -87 84 -87 53 0 77 25 84 87 12 98 28 167 50 217 52
116 166 229 282 282 50 22 119 38 217 50 62 7 87 31 87 84 0 53 -25 77 -87 84
-153 18 -232 47 -323 115 -72 54 -141 139 -176 217 -22 50 -38 119 -50 217 -7
62 -31 87 -84 87 -26 0 -47 -7 -59 -19z"/>
<path d="M4210 4012 c-16 -13 -23 -34 -31 -92 -15 -124 -46 -195 -121 -276
-78 -84 -171 -129 -298 -144 -85 -9 -110 -29 -110 -85 0 -57 25 -76 122 -90
118 -17 204 -59 276 -133 83 -84 131 -194 132 -298 0 -61 30 -94 84 -94 53 0
86 30 86 81 0 55 28 158 57 212 35 63 117 145 180 180 54 29 157 57 214 57 49
0 79 33 79 87 0 53 -34 83 -94 83 -104 1 -214 49 -298 132 -74 72 -116 158
-133 276 -10 67 -18 90 -35 104 -28 23 -81 23 -110 0z"/>
<path d="M3245 2940 c-12 -13 -22 -46 -27 -86 -20 -172 -140 -292 -312 -312
-82 -10 -106 -30 -106 -87 0 -57 27 -80 105 -89 168 -19 293 -143 314 -311 6
-56 13 -72 35 -92 32 -27 56 -29 96 -8 31 16 35 25 45 110 20 155 149 283 303
300 82 9 91 13 107 45 21 40 19 65 -8 96 -20 22 -36 29 -92 35 -168 21 -292
146 -311 314 -9 78 -32 105 -89 105 -29 0 -47 -6 -60 -20z"/>
</g>
</svg>
