<?xml version="1.0" standalone="no"?>
<!DOCTYPE svg PUBLIC "-//W3C//DTD SVG 20010904//EN"
 "http://www.w3.org/TR/2001/REC-SVG-20010904/DTD/svg10.dtd">
<svg version="1.0" xmlns="http://www.w3.org/2000/svg"
 width="512.000000pt" height="512.000000pt" viewBox="0 0 512.000000 512.000000"
 preserveAspectRatio="xMidYMid meet">
<metadata>
Created by potrace 1.16, written by Peter Selinger 2001-2019
</metadata>
<g transform="translate(0.000000,512.000000) scale(0.100000,-0.100000)"
fill="#000000" stroke="none" class="light-theme-svg">
<path d="M1493 5105 c-26 -19 -47 -77 -37 -107 23 -76 298 -736 312 -751 25
-24 71 -35 110 -25 36 10 72 57 72 96 0 34 -291 741 -318 774 -20 23 -32 28
-71 28 -25 0 -56 -7 -68 -15z"/>
<path d="M3526 5088 c-18 -16 -74 -138 -182 -393 -169 -402 -171 -409 -119
-461 33 -33 103 -33 139 -1 38 33 330 728 329 781 -1 82 -106 127 -167 74z"/>
<path d="M2486 4879 l-26 -31 0 -224 0 -224 28 -30 c21 -25 35 -31 68 -32 101
-1 114 31 114 287 0 257 -11 285 -113 285 -38 0 -49 -5 -71 -31z"/>
<path d="M928 4254 c-36 -19 -48 -43 -48 -94 0 -38 7 -48 135 -183 75 -78 146
-147 158 -154 69 -39 157 8 157 84 0 51 -11 66 -154 211 -154 157 -182 172
-248 136z"/>
<path d="M3977 4104 c-78 -75 -147 -146 -154 -158 -7 -11 -12 -38 -13 -59 0
-77 84 -122 158 -83 44 23 290 278 297 309 18 68 -29 127 -100 127 -45 0 -48
-2 -188 -136z"/>
<path d="M2375 4154 c-179 -27 -333 -70 -467 -131 -63 -29 -80 -42 -94 -71
-30 -63 5 -129 77 -147 18 -4 53 5 115 31 194 80 359 114 554 114 280 0 543
-82 793 -247 99 -66 290 -258 358 -363 155 -234 225 -455 236 -731 7 -190 -9
-307 -68 -484 -73 -219 -171 -378 -339 -545 -203 -204 -424 -323 -713 -387
-115 -25 -417 -25 -534 0 -283 61 -511 184 -713 387 -204 203 -324 425 -387
713 -25 117 -25 418 1 537 22 104 77 263 118 344 37 73 35 128 -7 163 -28 25
-91 31 -126 13 -45 -25 -150 -284 -191 -474 -19 -87 -22 -131 -22 -316 0 -184
3 -229 22 -315 68 -313 205 -573 416 -793 248 -257 543 -413 900 -474 103 -17
148 -19 301 -15 197 6 297 23 464 78 431 142 800 484 967 897 98 243 129 418
121 677 -14 425 -166 775 -466 1076 -186 185 -366 299 -609 383 -177 61 -273
77 -487 81 -104 2 -203 1 -220 -1z"/>
<path d="M1459 3721 c-41 -41 -41 -106 -1 -143 36 -34 74 -42 116 -24 42 17
59 47 59 100 0 87 -111 130 -174 67z"/>
<path d="M83 3693 c-64 -13 -95 -116 -51 -167 16 -18 139 -75 393 -182 401
-169 409 -171 461 -119 33 33 33 103 2 139 -16 18 -135 73 -378 175 -362 152
-388 162 -427 154z"/>
<path d="M4990 3663 c-120 -46 -729 -298 -739 -306 -69 -58 -23 -187 67 -187
34 0 741 291 774 318 23 20 28 32 28 68 0 57 -22 91 -69 104 -40 11 -40 11
-61 3z"/>
<path d="M3429 3025 c-32 -17 -53 -65 -46 -102 3 -16 18 -66 33 -113 22 -70
27 -109 31 -225 4 -126 2 -150 -21 -238 -31 -119 -80 -225 -146 -312 -67 -88
-73 -102 -66 -143 11 -72 82 -109 148 -78 67 33 193 237 246 401 45 136 56
223 49 392 -6 155 -33 286 -76 371 -30 58 -94 78 -152 47z"/>
<path d="M245 2658 c-53 -47 -49 -134 8 -168 29 -18 51 -20 232 -20 181 0 203
2 232 20 57 34 61 121 8 168 -25 21 -32 22 -240 22 -208 0 -215 -1 -240 -22z"/>
<path d="M4403 2630 c-57 -34 -61 -121 -8 -167 25 -22 32 -23 240 -23 208 0
215 1 240 23 53 46 49 133 -8 167 -29 18 -51 20 -232 20 -181 0 -203 -2 -232
-20z"/>
<path d="M411 1800 c-200 -82 -374 -159 -387 -171 -29 -27 -33 -101 -9 -136
19 -27 77 -47 107 -37 78 24 736 298 751 312 24 25 35 71 25 110 -10 37 -58
72 -98 71 -14 0 -189 -67 -389 -149z"/>
<path d="M4263 1916 c-39 -18 -53 -43 -53 -95 0 -27 7 -48 23 -65 32 -38 728
-330 781 -329 82 1 127 106 74 167 -16 18 -135 73 -379 176 -196 83 -370 152
-385 155 -16 3 -43 -1 -61 -9z"/>
<path d="M2884 1735 c-36 -19 -54 -52 -54 -100 0 -50 35 -86 91 -92 41 -5 50
-2 80 25 29 26 34 37 34 76 0 36 -6 51 -26 71 -32 32 -84 41 -125 20z"/>
<path d="M1145 1311 c-52 -32 -283 -274 -290 -304 -18 -68 29 -127 100 -127
45 0 48 2 188 136 78 75 147 145 154 157 7 12 12 39 13 60 0 81 -91 124 -165
78z"/>
<path d="M3819 1281 c-33 -33 -39 -83 -15 -129 23 -44 278 -290 309 -297 68
-18 127 29 127 100 0 45 -2 48 -136 188 -75 78 -146 147 -158 154 -40 23 -95
16 -127 -16z"/>
<path d="M1756 888 c-36 -32 -329 -727 -330 -782 -1 -80 107 -128 168 -74 18
16 71 131 169 363 79 187 149 357 156 378 15 45 1 99 -32 122 -33 23 -101 19
-131 -7z"/>
<path d="M3242 898 c-36 -10 -72 -57 -72 -96 0 -41 292 -744 321 -775 22 -21
37 -27 71 -27 24 0 53 7 65 15 26 19 47 77 37 107 -23 76 -298 736 -312 751
-25 24 -71 35 -110 25z"/>
<path d="M2488 735 c-33 -33 -38 -67 -38 -268 0 -226 13 -257 113 -257 38 0
49 5 71 31 l26 31 0 217 0 218 -26 27 c-37 37 -110 37 -146 1z"/>
</g>
</svg>
