<?xml version="1.0" standalone="no"?>
<!DOCTYPE svg PUBLIC "-//W3C//DTD SVG 20010904//EN"
 "http://www.w3.org/TR/2001/REC-SVG-20010904/DTD/svg10.dtd">
<svg version="1.0" xmlns="http://www.w3.org/2000/svg"
 width="512.000000pt" height="512.000000pt" viewBox="0 0 512.000000 512.000000"
 preserveAspectRatio="xMidYMid meet">
<metadata>
Created by potrace 1.16, written by Peter Selinger 2001-2019
</metadata>
<g transform="translate(0.000000,512.000000) scale(0.100000,-0.100000)"
fill="#000000" stroke="none">
<path d="M1604 5095 c-530 -76 -992 -366 -1293 -815 -135 -201 -225 -414 -277
-657 -32 -146 -44 -462 -24 -619 94 -748 646 -1382 1372 -1573 189 -50 315
-64 538 -58 146 3 222 10 305 26 566 114 1035 464 1303 971 201 380 262 834
172 1268 -78 372 -295 746 -580 999 -252 224 -573 382 -901 444 -149 28 -465
35 -615 14z m381 -415 c201 -19 362 -64 520 -142 409 -205 684 -563 782 -1018
26 -120 26 -439 0 -560 -41 -189 -109 -355 -210 -508 -217 -328 -528 -540
-917 -627 -118 -26 -381 -31 -515 -10 -610 95 -1082 559 -1202 1180 -23 123
-23 367 0 490 88 456 367 836 762 1037 177 90 344 140 525 157 124 12 134 12
255 1z"/>
<path d="M1165 4001 c-29 -12 -114 -105 -164 -180 -56 -82 -103 -185 -137
-297 -36 -120 -45 -357 -19 -485 37 -183 124 -359 243 -489 61 -67 66 -70 108
-70 60 0 94 32 94 88 0 34 -9 50 -59 110 -82 98 -134 190 -172 302 -28 82 -33
112 -36 225 -9 242 57 426 216 608 43 49 51 65 51 97 0 66 -67 115 -125 91z"/>
<path d="M3440 1939 c-56 -72 -186 -202 -275 -277 l-50 -42 191 -192 c192
-193 192 -193 196 -243 3 -27 17 -77 32 -111 24 -54 75 -108 499 -532 550
-549 521 -527 697 -527 93 0 111 3 163 27 80 38 158 115 193 191 26 56 29 72
29 167 0 98 -2 110 -33 175 -31 65 -63 100 -495 530 -505 504 -503 502 -643
525 l-69 12 -185 184 c-102 101 -187 184 -190 183 -3 0 -30 -31 -60 -70z"/>
</g>
</svg>
