<?xml version="1.0" standalone="no"?>
<!DOCTYPE svg PUBLIC "-//W3C//DTD SVG 20010904//EN"
 "http://www.w3.org/TR/2001/REC-SVG-20010904/DTD/svg10.dtd">
<svg version="1.0" xmlns="http://www.w3.org/2000/svg"
 width="512.000000pt" height="512.000000pt" viewBox="0 0 512.000000 512.000000"
 preserveAspectRatio="xMidYMid meet">
<metadata>
Created by potrace 1.16, written by Peter Selinger 2001-2019
</metadata>
<g transform="translate(0.000000,512.000000) scale(0.100000,-0.100000)"
fill="#000000" stroke="none">
<path d="M2520 5052 c-33 -16 -40 -30 -145 -297 -104 -265 -113 -283 -160
-331 -79 -79 -176 -103 -279 -68 -35 12 -80 46 -172 130 -108 99 -129 114
-159 114 -21 0 -44 -9 -61 -24 -32 -27 -33 -47 -13 -273 9 -113 9 -139 -5
-185 -20 -70 -83 -143 -151 -174 -87 -41 -125 -35 -471 71 -170 52 -322 95
-337 95 -16 0 -38 -10 -52 -25 -51 -50 -45 -64 200 -490 123 -214 222 -391
219 -394 -2 -2 -124 -23 -270 -47 -228 -36 -269 -46 -290 -65 -24 -22 -32 -68
-18 -104 4 -9 66 -56 140 -106 155 -105 208 -159 230 -237 13 -45 14 -65 5
-110 -12 -60 -46 -125 -83 -158 -12 -12 -153 -110 -313 -219 -160 -109 -300
-207 -312 -218 -25 -22 -31 -83 -13 -117 14 -27 50 -35 350 -81 302 -46 303
-46 350 -70 90 -45 149 -144 150 -249 0 -64 -8 -88 -66 -193 -20 -36 -10 -81
23 -107 34 -27 56 -25 165 9 130 41 150 44 212 31 69 -14 137 -59 175 -116 53
-81 55 -103 26 -482 -31 -421 -31 -446 -5 -472 29 -29 67 -35 104 -17 17 9
148 124 290 257 143 132 278 249 301 260 61 29 123 35 186 16 96 -27 161 -95
209 -218 26 -69 50 -92 94 -92 50 0 82 26 94 76 37 143 187 240 325 209 29 -6
69 -21 88 -34 20 -12 148 -125 283 -252 136 -126 259 -233 273 -237 36 -10 91
15 103 47 7 17 0 151 -21 436 -28 381 -29 414 -15 463 19 63 81 138 139 168
73 37 146 35 287 -6 145 -42 179 -45 208 -13 36 39 37 68 2 138 -59 116 -49
229 26 318 63 73 103 86 396 131 298 45 334 53 348 80 18 34 12 95 -12 117
-13 11 -158 112 -322 224 -165 112 -314 219 -332 237 -48 49 -68 98 -72 177
-7 130 25 175 226 315 81 57 152 111 159 119 7 9 13 33 13 54 0 55 -31 82
-106 91 -108 13 -162 34 -214 82 -80 75 -111 168 -87 261 7 27 70 149 140 270
140 243 149 272 102 318 -14 15 -36 25 -52 25 -15 0 -169 -44 -343 -97 -265
-82 -325 -98 -380 -97 -118 0 -224 80 -257 193 -13 47 -14 76 -4 221 15 233
16 227 -19 262 -50 50 -80 38 -216 -86 -93 -85 -125 -108 -166 -121 -108 -32
-193 -10 -274 69 -49 49 -56 61 -155 315 -69 176 -110 268 -124 276 -36 23
-60 25 -95 7z m285 -1158 c304 -49 564 -181 775 -393 156 -156 255 -314 328
-522 62 -176 99 -424 87 -584 -34 -464 -280 -877 -671 -1127 -127 -82 -317
-158 -484 -194 -121 -27 -438 -27 -560 0 -288 62 -528 193 -735 401 -393 392
-517 928 -343 1475 67 211 177 391 337 551 324 326 791 470 1266 393z"/>
<path d="M2415 3760 c-181 -21 -381 -91 -541 -191 -106 -66 -267 -217 -347
-324 -71 -95 -168 -291 -197 -395 -103 -376 -40 -778 173 -1098 75 -112 215
-253 324 -325 437 -289 1038 -287 1472 5 333 226 534 627 534 1068 -1 608
-437 1129 -1041 1244 -106 20 -275 27 -377 16z"/>
</g>
</svg>
